<svg fill="none" xmlns="http://www.w3.org/2000/svg">
    <symbol id="html-svg" viewBox="0 0 48 48">
        <path fill="#E65100" d="M41,5H7l3,34l14,4l14-4L41,5L41,5z"/>
        <path fill="#FF6D00" d="M24 8L24 39.9 35.2 36.7 37.7 8z"/>
        <path fill="#FFF" d="M24,25v-4h8.6l-0.7,11.5L24,35.1v-4.2l4.1-1.4l0.3-4.5H24z M32.9,17l0.3-4H24v4H32.9z"/>
        <path fill="#EEE"
              d="M24,30.9v4.2l-7.9-2.6L15.7,27h4l0.2,2.5L24,30.9z M19.1,17H24v-4h-9.1l0.7,12H24v-4h-4.6L19.1,17z"/>
    </symbol>

    <symbol id="sass-svg" viewBox="0 0 48 48">
        <path fill="#f06292"
              d="M39.867,25.956c-1.538,0.008-2.87,0.377-3.986,0.928c-0.408-0.815-0.822-1.532-0.891-2.065	c-0.081-0.622-0.175-0.994-0.077-1.735c0.098-0.741,0.527-1.791,0.521-1.87c-0.006-0.079-0.096-0.456-0.983-0.463	c-0.887-0.006-1.646,0.171-1.735,0.405c-0.089,0.234-0.26,0.761-0.366,1.311c-0.155,0.804-1.771,3.673-2.688,5.173	c-0.3-0.586-0.555-1.102-0.608-1.51c-0.081-0.622-0.175-0.994-0.077-1.735c0.098-0.741,0.527-1.791,0.521-1.87	c-0.006-0.079-0.096-0.456-0.983-0.463c-0.887-0.006-1.646,0.171-1.735,0.405c-0.089,0.234-0.185,0.781-0.366,1.311	c-0.182,0.529-2.329,5.314-2.892,6.555c-0.287,0.632-0.536,1.14-0.712,1.486c-0.001-0.001-0.001-0.002-0.001-0.002	s-0.011,0.023-0.029,0.062c-0.151,0.295-0.24,0.458-0.24,0.458s0.001,0.002,0.003,0.006c-0.12,0.217-0.248,0.418-0.311,0.418	c-0.044,0-0.133-0.577,0.019-1.369c0.32-1.66,1.087-4.248,1.08-4.338c-0.004-0.046,0.143-0.497-0.501-0.733	c-0.626-0.229-0.849,0.153-0.906,0.154c-0.055,0.001-0.096,0.135-0.096,0.135s0.697-2.911-1.33-2.911	c-1.268,0-3.024,1.387-3.889,2.644c-0.546,0.298-1.715,0.936-2.954,1.617c-0.476,0.262-0.962,0.529-1.423,0.783	c-0.031-0.035-0.063-0.069-0.095-0.104c-2.459-2.623-7.003-4.478-6.811-8.005c0.07-1.282,0.516-4.658,8.733-8.752	c6.731-3.354,12.12-2.431,13.051-0.386c1.33,2.923-2.88,8.354-9.87,9.138c-2.663,0.299-4.066-0.734-4.415-1.118	c-0.367-0.405-0.422-0.423-0.559-0.347c-0.223,0.124-0.082,0.481,0,0.694c0.209,0.543,1.065,1.506,2.525,1.986	c1.285,0.422,4.412,0.653,8.193-0.81c4.236-1.638,7.543-6.196,6.571-10.005c-0.988-3.874-7.412-5.148-13.492-2.988	C12.44,9.332,8.523,11.35,5.706,13.984c-3.349,3.132-3.883,5.859-3.663,6.998c0.782,4.048,6.361,6.684,8.595,8.637	c-0.11,0.061-0.214,0.118-0.308,0.17c-1.12,0.554-5.373,2.78-6.437,5.131c-1.207,2.667,0.192,4.581,1.118,4.839	c2.869,0.798,5.813-0.638,7.396-2.998c1.582-2.359,1.389-5.432,0.663-6.834c-0.009-0.017-0.019-0.034-0.028-0.052	c0.289-0.171,0.584-0.345,0.876-0.517c0.57-0.335,1.13-0.647,1.615-0.911c-0.272,0.744-0.471,1.637-0.574,2.926	c-0.122,1.514,0.499,3.471,1.311,4.241c0.358,0.339,0.788,0.347,1.06,0.347c0.945,0,1.376-0.786,1.851-1.716	c0.582-1.14,1.099-2.468,1.099-2.468s-0.648,3.586,1.118,3.586c0.644,0,1.291-0.835,1.58-1.26c0.001,0.005,0.001,0.007,0.001,0.007	s0.017-0.028,0.05-0.083c0.067-0.102,0.105-0.167,0.105-0.167s0.001-0.007,0.003-0.019c0.259-0.449,0.833-1.473,1.693-3.162	c1.112-2.182,2.178-4.916,2.178-4.916s0.099,0.668,0.424,1.774c0.191,0.65,0.597,1.369,0.918,2.059	c-0.258,0.358-0.416,0.563-0.416,0.563s0.001,0.004,0.004,0.011c-0.206,0.274-0.437,0.569-0.679,0.857	c-0.878,1.045-1.923,2.239-2.063,2.583c-0.165,0.406-0.126,0.704,0.193,0.945c0.233,0.175,0.647,0.203,1.08,0.174	c0.789-0.053,1.343-0.249,1.617-0.368c0.427-0.151,0.924-0.388,1.39-0.731c0.861-0.633,1.38-1.538,1.33-2.738	c-0.028-0.661-0.238-1.316-0.505-1.934c0.078-0.112,0.156-0.226,0.235-0.34c1.357-1.984,2.41-4.164,2.41-4.164	s0.099,0.668,0.424,1.774c0.164,0.559,0.489,1.17,0.781,1.768c-1.276,1.037-2.067,2.242-2.342,3.032	c-0.508,1.462-0.11,2.124,0.636,2.275c0.338,0.068,0.816-0.087,1.175-0.239c0.447-0.148,0.984-0.395,1.486-0.764	c0.861-0.633,1.689-1.519,1.639-2.718c-0.023-0.546-0.171-1.088-0.372-1.608c1.082-0.451,2.482-0.701,4.266-0.493	c3.827,0.447,4.577,2.836,4.434,3.836c-0.144,1-0.946,1.55-1.215,1.716c-0.268,0.166-0.35,0.224-0.328,0.347	c0.033,0.179,0.157,0.173,0.386,0.134c0.315-0.053,2.009-0.813,2.082-2.659C46.089,28.509,43.844,25.935,39.867,25.956z M10.37,35.9	c-1.268,1.383-3.038,1.905-3.798,1.465c-0.82-0.475-0.495-2.511,1.06-3.979c0.948-0.894,2.172-1.718,2.984-2.225	c0.185-0.111,0.456-0.274,0.786-0.472c0.055-0.031,0.086-0.048,0.086-0.048l-0.001-0.002c0.064-0.038,0.129-0.077,0.196-0.118	C12.25,32.61,11.701,34.449,10.37,35.9z M19.605,29.623c-0.441,1.076-1.365,3.83-1.928,3.682c-0.483-0.127-0.777-2.22-0.096-4.28	c0.342-1.037,1.074-2.276,1.504-2.757c0.692-0.774,1.454-1.027,1.639-0.713C20.959,25.955,19.882,28.948,19.605,29.623z M27.234,33.263c-0.187,0.098-0.359,0.159-0.438,0.112c-0.059-0.035,0.077-0.164,0.077-0.164s0.954-1.027,1.33-1.494	c0.219-0.272,0.472-0.595,0.748-0.955c0.002,0.036,0.003,0.072,0.003,0.107C28.952,32.099,27.764,32.929,27.234,33.263z M33.111,31.923c-0.14-0.099-0.116-0.42,0.343-1.421c0.18-0.393,0.592-1.054,1.306-1.686c0.083,0.26,0.133,0.509,0.132,0.741	C34.883,31.105,33.779,31.683,33.111,31.923z"/>
    </symbol>

    <symbol id="bootstrap-svg" viewBox="0 0 48 48">
        <path fill="#7c4dff"
              d="M7.373,11.443C7.293,9.132,9.094,7,11.529,7h24.946c2.435,0,4.236,2.132,4.155,4.443	c-0.077,2.221,0.023,5.097,0.747,7.443c0.726,2.353,1.951,3.84,3.957,4.031v2.167c-2.006,0.191-3.23,1.678-3.957,4.031	c-0.724,2.345-0.824,5.222-0.747,7.443C40.71,38.868,38.909,41,36.475,41H11.529c-2.434,0-4.236-2.132-4.155-4.443	c0.077-2.221-0.023-5.097-0.747-7.443c-0.726-2.353-1.954-3.84-3.96-4.031v-2.167c2.006-0.191,3.233-1.678,3.96-4.031	C7.35,16.54,7.451,13.664,7.373,11.443z"/>
        <path fill="#fff"
              d="M27.073,23.464v-0.028c1.853-0.32,3.299-2.057,3.299-3.97c0-1.352-0.52-2.498-1.504-3.312	c-0.981-0.812-2.357-1.241-3.981-1.241H17.45V33.08h7.475c1.942,0,3.555-0.474,4.663-1.372c1.109-0.899,1.696-2.207,1.696-3.783	C31.283,25.544,29.593,23.756,27.073,23.464z M23.59,22.608h-3.181V17.29h3.784c2.076,0,3.219,0.911,3.219,2.565	C27.413,21.63,26.055,22.608,23.59,22.608z M20.409,24.834h3.759c2.716,0,4.092,0.981,4.092,2.916c0,1.932-1.357,2.953-3.925,2.953	h-3.926V24.834z"/>
    </symbol>

    <symbol id="wordpress-svg" viewBox="0 0 50 50">
        <path fill="#fff" d="M24 4.050000000000001A19.95 19.95 0 1 0 24 43.95A19.95 19.95 0 1 0 24 4.050000000000001Z"/>
        <path fill="#01579b"
              d="M8.001,24c0,6.336,3.68,11.806,9.018,14.4L9.385,17.488C8.498,19.479,8.001,21.676,8.001,24z M34.804,23.194c0-1.977-1.063-3.35-1.67-4.412c-0.813-1.329-1.576-2.437-1.576-3.752c0-1.465,1.471-2.84,3.041-2.84 c0.071,0,0.135,0.006,0.206,0.008C31.961,9.584,28.168,8,24.001,8c-5.389,0-10.153,2.666-13.052,6.749 c0.228,0.074,0.307,0.039,0.611,0.039c1.669,0,4.264-0.2,4.264-0.2c0.86-0.057,0.965,1.212,0.099,1.316c0,0-0.864,0.105-1.828,0.152 l5.931,17.778l3.5-10.501l-2.603-7.248c-0.861-0.046-1.679-0.152-1.679-0.152c-0.862-0.056-0.762-1.375,0.098-1.316 c0,0,2.648,0.2,4.217,0.2c1.675,0,4.264-0.2,4.264-0.2c0.861-0.057,0.965,1.212,0.104,1.316c0,0-0.87,0.105-1.832,0.152l5.891,17.61 l1.599-5.326C34.399,26.289,34.804,24.569,34.804,23.194z M24.281,25.396l-4.8,13.952c1.436,0.426,2.95,0.652,4.52,0.652 c1.861,0,3.649-0.324,5.316-0.907c-0.04-0.071-0.085-0.143-0.118-0.22L24.281,25.396z M38.043,16.318 c0.071,0.51,0.108,1.059,0.108,1.645c0,1.628-0.306,3.451-1.219,5.737l-4.885,14.135C36.805,35.063,40,29.902,40,24 C40,21.219,39.289,18.604,38.043,16.318z"/>
        <path fill="#01579b"
              d="M4,24c0,11.024,8.97,20,19.999,20C35.03,44,44,35.024,44,24S35.03,4,24,4S4,12.976,4,24z M5.995,24 c0-9.924,8.074-17.999,18.004-17.999S42.005,14.076,42.005,24S33.929,42.001,24,42.001C14.072,42.001,5.995,33.924,5.995,24z"/>
    </symbol>

    <symbol id="git-svg" viewBox="0 0 48 48">
        <path fill="#F4511E"
              d="M42.2,22.1L25.9,5.8C25.4,5.3,24.7,5,24,5c0,0,0,0,0,0c-0.7,0-1.4,0.3-1.9,0.8l-3.5,3.5l4.1,4.1c0.4-0.2,0.8-0.3,1.3-0.3c1.7,0,3,1.3,3,3c0,0.5-0.1,0.9-0.3,1.3l4,4c0.4-0.2,0.8-0.3,1.3-0.3c1.7,0,3,1.3,3,3s-1.3,3-3,3c-1.7,0-3-1.3-3-3c0-0.5,0.1-0.9,0.3-1.3l-4-4c-0.1,0-0.2,0.1-0.3,0.1v10.4c1.2,0.4,2,1.5,2,2.8c0,1.7-1.3,3-3,3s-3-1.3-3-3c0-1.3,0.8-2.4,2-2.8V18.8c-1.2-0.4-2-1.5-2-2.8c0-0.5,0.1-0.9,0.3-1.3l-4.1-4.1L5.8,22.1C5.3,22.6,5,23.3,5,24c0,0.7,0.3,1.4,0.8,1.9l16.3,16.3c0,0,0,0,0,0c0.5,0.5,1.2,0.8,1.9,0.8s1.4-0.3,1.9-0.8l16.3-16.3c0.5-0.5,0.8-1.2,0.8-1.9C43,23.3,42.7,22.6,42.2,22.1z"/>
    </symbol>

    <symbol id="js-svg" viewBox="0 0 48 48">
        <path fill="#ffd600" d="M6,42V6h36v36H6z"/>
        <path fill="#000001"
              d="M29.538 32.947c.692 1.124 1.444 2.201 3.037 2.201 1.338 0 2.04-.665 2.04-1.585 0-1.101-.726-1.492-2.198-2.133l-.807-.344c-2.329-.988-3.878-2.226-3.878-4.841 0-2.41 1.845-4.244 4.728-4.244 2.053 0 3.528.711 4.592 2.573l-2.514 1.607c-.553-.988-1.151-1.377-2.078-1.377-.946 0-1.545.597-1.545 1.377 0 .964.6 1.354 1.985 1.951l.807.344C36.452 29.645 38 30.839 38 33.523 38 36.415 35.716 38 32.65 38c-2.999 0-4.702-1.505-5.65-3.368L29.538 32.947zM17.952 33.029c.506.906 1.275 1.603 2.381 1.603 1.058 0 1.667-.418 1.667-2.043V22h3.333v11.101c0 3.367-1.953 4.899-4.805 4.899-2.577 0-4.437-1.746-5.195-3.368L17.952 33.029z"/>
    </symbol>

    <symbol id="react-svg" viewBox="0 0 80 80">
        <path fill="#8bb7f0"
              d="M24.474,75.503c-1.711,0-3.269-0.392-4.632-1.164c-2.28-1.293-3.856-3.521-4.686-6.62 c-0.965-3.607-0.85-8.398,0.332-13.878C5.956,50.562,0.5,45.531,0.5,40c0-5.532,5.455-10.562,14.987-13.84 c-1.182-5.481-1.298-10.272-0.333-13.879c0.83-3.1,2.406-5.328,4.685-6.62c1.362-0.772,2.921-1.164,4.632-1.164 c4.388,0,9.891,2.73,15.531,7.698c5.64-4.963,11.141-7.691,15.524-7.691c1.711,0,3.269,0.392,4.632,1.164 c2.277,1.291,3.854,3.515,4.684,6.611c0.966,3.606,0.85,8.398-0.333,13.88C74.043,29.437,79.5,34.468,79.5,40 s-5.457,10.563-14.991,13.842c1.182,5.481,1.298,10.272,0.332,13.878c-0.83,3.097-2.405,5.321-4.68,6.612 c-1.364,0.772-2.923,1.164-4.633,1.164c-4.386,0-9.889-2.728-15.527-7.689C34.361,72.774,28.859,75.503,24.474,75.503z M19.337,55.006c-0.991,4.717-1.102,8.747-0.316,11.679c0.542,2.026,1.481,3.431,2.794,4.175c0.753,0.427,1.648,0.644,2.659,0.644 c3.394,0,7.862-2.282,12.621-6.437c-2.385-2.402-4.713-5.121-6.928-8.091C26.336,56.56,22.696,55.898,19.337,55.006z M42.906,65.065c4.758,4.151,9.227,6.431,12.621,6.432c1.011,0,1.906-0.217,2.661-0.644c1.309-0.742,2.246-2.144,2.787-4.167 c0.786-2.934,0.676-6.963-0.315-11.679c-3.362,0.892-7.003,1.554-10.833,1.97C47.613,59.947,45.288,62.665,42.906,65.065z M35.566,57.393c1.452,1.776,2.938,3.433,4.434,4.94c1.492-1.506,2.979-3.163,4.43-4.94C42.939,57.464,41.454,57.5,40,57.5 C38.545,57.5,37.059,57.464,35.566,57.393z M32.349,53.179C34.844,53.392,37.417,53.5,40,53.5c2.585,0,5.155-0.108,7.646-0.32 c1.486-2.084,2.903-4.268,4.214-6.495c1.268-2.155,2.461-4.404,3.547-6.686c-1.083-2.276-2.275-4.524-3.546-6.684 c-1.308-2.222-2.725-4.406-4.215-6.495C45.157,26.608,42.587,26.5,40,26.5c-2.588,0-5.159,0.108-7.647,0.321 c-1.49,2.086-2.909,4.27-4.219,6.495c-1.27,2.159-2.462,4.407-3.546,6.686c1.082,2.274,2.274,4.522,3.545,6.684 C29.437,48.901,30.854,51.084,32.349,53.179z M57.491,44.779c-0.706,1.346-1.438,2.666-2.185,3.934 c-0.753,1.282-1.554,2.568-2.386,3.836c2.374-0.366,4.645-0.835,6.771-1.4C59.101,49.1,58.362,46.963,57.491,44.779z M20.304,51.148c2.127,0.564,4.397,1.034,6.768,1.4c-0.837-1.276-1.638-2.563-2.386-3.835c-0.745-1.267-1.478-2.585-2.183-3.931 C21.636,46.956,20.898,49.091,20.304,51.148z M59.816,40c1.528,3.391,2.773,6.743,3.708,9.977C70.926,47.373,75.5,43.574,75.5,40 s-4.574-7.373-11.976-9.977C62.591,33.257,61.345,36.609,59.816,40z M16.472,30.025C9.073,32.628,4.5,36.427,4.5,40 c0,3.574,4.573,7.373,11.974,9.976c0.934-3.235,2.179-6.587,3.705-9.974C18.652,36.614,17.407,33.262,16.472,30.025z M20.303,28.852c0.594,2.054,1.332,4.19,2.2,6.368c0.704-1.342,1.436-2.661,2.184-3.932c0.752-1.279,1.553-2.565,2.388-3.836 C24.701,27.817,22.431,28.287,20.303,28.852z M52.922,27.451c0.837,1.277,1.638,2.563,2.386,3.837 c0.746,1.267,1.479,2.586,2.185,3.932c0.869-2.177,1.607-4.313,2.201-6.369C57.564,28.286,55.294,27.816,52.922,27.451z M24.471,8.497c-1.011,0-1.905,0.216-2.657,0.644c-1.312,0.744-2.252,2.149-2.795,4.175c-0.785,2.935-0.675,6.964,0.317,11.679 c3.36-0.892,7.002-1.555,10.834-1.971c2.217-2.971,4.545-5.688,6.927-8.088C32.337,10.779,27.866,8.497,24.471,8.497z M49.828,23.023c3.83,0.416,7.471,1.078,10.833,1.97c0.992-4.716,1.103-8.746,0.316-11.68c-0.542-2.022-1.48-3.424-2.79-4.166 c-0.754-0.427-1.649-0.644-2.661-0.644c-3.393,0-7.86,2.281-12.619,6.433C45.287,17.335,47.613,20.053,49.828,23.023z M40,22.5 c1.454,0,2.939,0.036,4.431,0.107c-1.45-1.774-2.936-3.43-4.429-4.938c-1.497,1.51-2.982,3.166-4.432,4.938 C37.061,22.536,38.546,22.5,40,22.5z"/>
        <path fill="#4e7ab5"
              d="M24.471,4.997c4.494,0,9.996,2.91,15.532,7.867c5.535-4.953,11.034-7.86,15.524-7.86 c1.623,0,3.099,0.37,4.386,1.099c2.156,1.222,3.652,3.343,4.446,6.306c1.077,3.917,0.851,8.74-0.434,14.08 C73.147,29.57,79,34.431,79,40s-5.853,10.43-15.076,13.512c1.341,5.773,1.566,10.726,0.434,14.079 c-0.794,2.962-2.289,5.084-4.443,6.306C58.626,74.627,57.455,75,55.833,75c-0.001,0-0.416,0-0.417,0 c-4.492,0-9.882-2.91-15.416-7.861c-5.535,4.956-11.035,7.864-15.527,7.864c-1.623,0-3.099-0.37-4.386-1.099 c-2.158-1.225-3.655-3.349-4.448-6.314c-1.19-3.717-0.95-8.603,0.434-14.079C6.852,50.429,1,45.569,1,40 c0-5.568,5.852-10.429,15.072-13.511C15.385,23.43,14.946,20.59,14.931,18c-0.012-2.046,0.267-3.949,0.707-5.59 c0.794-2.966,2.29-5.09,4.448-6.314C21.372,5.366,22.848,4.997,24.471,4.997 M18.958,25.614c3.477-0.955,7.338-1.677,11.483-2.117 c2.382-3.21,4.875-6.096,7.386-8.584c-4.872-4.346-9.616-6.917-13.356-6.917c-1.099,0-2.075,0.238-2.904,0.709 c-1.433,0.813-2.452,2.32-3.031,4.481C17.678,16.388,17.873,20.716,18.958,25.614 M61.039,25.613 c1.085-4.898,1.28-9.227,0.422-12.429c-0.578-2.157-1.597-3.661-3.027-4.472c-0.83-0.471-1.809-0.709-2.907-0.709 c-3.737,0-8.478,2.568-13.349,6.91c2.51,2.488,5,5.374,7.38,8.583C53.701,23.936,57.562,24.658,61.039,25.613 M34.477,23.166 c1.802-0.107,3.609-0.2,5.488-0.2c1.879,0,3.755,0.094,5.557,0.2c-1.808-2.279-3.664-4.361-5.521-6.204 C38.144,18.805,36.287,20.887,34.477,23.166 M40,54c2.761,0,5.404-0.121,7.918-0.342c1.519-2.117,2.988-4.365,4.372-6.719 c1.353-2.299,2.577-4.626,3.67-6.939c-1.093-2.313-2.317-4.639-3.669-6.937c-1.385-2.355-2.853-4.602-4.373-6.719 C45.405,26.121,42.762,26,40,26s-5.406,0.121-7.92,0.343c-1.521,2.117-2.991,4.365-4.376,6.719 c-1.352,2.299-2.576,4.626-3.669,6.939c1.093,2.313,2.316,4.639,3.668,6.937c1.385,2.354,2.854,4.602,4.374,6.719 C34.592,53.879,37.237,54,40,54 M57.546,36.413c1.125-2.709,2.056-5.369,2.766-7.913c-2.553-0.702-5.373-1.282-8.428-1.707 c1.028,1.527,2.029,3.11,2.992,4.748C55.83,33.16,56.717,34.788,57.546,36.413 M22.449,36.414c0.828-1.625,1.716-3.253,2.668-4.873 c0.964-1.638,1.966-3.22,2.995-4.747c-3.055,0.424-5.875,1.005-8.428,1.707C20.394,31.045,21.325,33.704,22.449,36.414 M63.188,50.622C71.264,47.886,76,43.866,76,40s-4.736-7.886-12.812-10.622c-0.953,3.405-2.269,6.983-3.92,10.621 C60.919,43.638,62.235,47.216,63.188,50.622 M16.81,50.621c0.952-3.404,2.267-6.982,3.918-10.619 c-1.651-3.638-2.967-7.217-3.919-10.622C8.734,32.116,4,36.135,4,40C4,43.866,8.735,47.885,16.81,50.621 M51.884,53.207 c3.055-0.424,5.875-1.004,8.428-1.707c-0.711-2.544-1.642-5.204-2.766-7.914c-0.829,1.625-1.717,3.253-2.67,4.873 C53.913,50.097,52.912,51.68,51.884,53.207 M28.109,53.206c-1.028-1.527-2.029-3.109-2.993-4.746 c-0.952-1.619-1.839-3.246-2.667-4.87c-1.124,2.708-2.054,5.367-2.764,7.91C22.237,52.201,25.056,52.781,28.109,53.206 M24.474,72.003c3.739,0,8.481-2.57,13.352-6.914c-2.513-2.489-5.005-5.376-7.388-8.587c-4.143-0.439-8.002-1.161-11.478-2.116 c-1.084,4.898-1.279,9.226-0.422,12.428c0.578,2.16,1.598,3.667,3.03,4.48C22.396,71.765,23.375,72.003,24.474,72.003 M55.527,71.997L55.527,71.997c1.099,0,2.076-0.238,2.907-0.709c1.43-0.811,2.447-2.315,3.024-4.473 c0.858-3.203,0.663-7.531-0.421-12.428c-3.477,0.955-7.337,1.677-11.481,2.116c-2.38,3.21-4.871,6.096-7.381,8.585 C47.046,69.428,51.788,71.996,55.527,71.997 M40,63.04c1.857-1.844,3.713-3.927,5.522-6.206c-1.801,0.107-3.559,0.333-5.439,0.333 c-1.881,0-3.807-0.226-5.609-0.333C36.284,59.114,38.142,61.197,40,63.04 M24.116,4.072c-1.799,0-3.085,0.338-4.523,1.153 c-2.399,1.361-4.055,3.691-4.921,6.926c-0.96,3.587-0.877,8.302,0.236,13.681C5.419,29.189,0,34.325,0,40 c0,5.676,5.42,10.811,14.909,14.168c-1.113,5.379-1.196,10.094-0.235,13.681c0.865,3.233,2.52,5.563,4.921,6.926 c1.44,0.816,3.17,1.163,4.968,1.163c4.487,0,9.753-2.535,15.438-7.466c5.684,4.926,11.039,7.524,15.525,7.525 c1.799,0,3.441-0.413,4.881-1.229c2.397-1.359,4.051-3.686,4.916-6.917c0.961-3.588,0.878-8.303-0.235-13.681 C74.579,50.812,80,45.676,80,40s-5.42-10.812-14.911-14.169c1.114-5.38,1.196-10.095,0.235-13.682 c-0.866-3.231-2.521-5.558-4.919-6.917c-1.439-0.815-3.081-1.229-4.879-1.229c-4.485,0-9.839,2.599-15.524,7.527 c-5.686-4.932-11.066-7.461-15.554-7.461L24.116,4.072z M19.72,24.377c-0.462-2.324-0.772-4.502-0.789-6.412 c-0.015-1.72,0.221-3.217,0.57-4.521c0.507-1.892,1.368-3.194,2.559-3.87c0.676-0.384,1.5-0.644,2.423-0.644 c3.181,0,7.367,2.178,11.883,6.034c-2.221,2.273-4.392,4.819-6.466,7.585C26.315,22.949,22.897,23.562,19.72,24.377L19.72,24.377z M43.638,14.966c4.515-3.853,8.711-5.963,11.888-5.963c0.924,0,1.737,0.195,2.414,0.579c1.189,0.674,2.049,1.973,2.555,3.861 c0.874,2.818,0.761,6.564-0.218,10.933c-3.177-0.814-6.594-1.428-10.178-1.826C48.026,19.785,45.857,17.239,43.638,14.966 L43.638,14.966z M36.673,22.06c1.096-1.3,2.209-2.53,3.328-3.678c1.119,1.148,2.231,2.378,3.326,3.678 C42.208,22.02,41.095,22,40,22S37.793,22.02,36.673,22.06L36.673,22.06z M32.625,27.3c2.405-0.199,4.883-0.341,7.375-0.341 c2.491,0,4.969,0.142,7.373,0.341c1.432,2.019,2.796,4.126,4.056,6.269c1.222,2.078,2.373,4.239,3.423,6.43 c-1.051,2.192-2.202,4.354-3.424,6.432c-1.261,2.144-2.624,4.25-4.056,6.269c-2.403,0.199-4.881,0.466-7.372,0.466 c-2.493,0-4.972-0.268-7.378-0.467c-1.433-2.018-2.797-4.125-4.058-6.269c-1.222-2.077-2.372-4.238-3.422-6.43 c1.05-2.192,2.201-4.354,3.423-6.432C29.827,31.425,31.192,29.318,32.625,27.3L32.625,27.3z M57.422,34.024 c-0.549-1.018-1.112-2.018-1.683-2.99c-0.57-0.969-1.167-1.942-1.785-2.909c1.774,0.302,3.485,0.663,5.114,1.08 C58.601,30.771,58.05,32.383,57.422,34.024L57.422,34.024z M20.928,29.205c1.629-0.417,3.34-0.778,5.114-1.08 c-0.619,0.967-1.216,1.94-1.786,2.908c-0.571,0.972-1.134,1.972-1.683,2.99C21.945,32.384,21.395,30.772,20.928,29.205 L20.928,29.205z M60.365,39.999c1.415-3.162,2.587-6.292,3.49-9.326C70.758,33.192,75,36.721,75,40s-4.242,6.808-11.145,9.327 C62.951,46.292,61.78,43.161,60.365,39.999L60.365,39.999z M16.142,49.326C9.241,46.807,5,43.278,5,40s4.241-6.807,11.141-9.326 c0.903,3.035,2.074,6.165,3.489,9.327C18.216,43.162,17.045,46.292,16.142,49.326L16.142,49.326z M53.953,51.876 c0.618-0.968,1.216-1.941,1.785-2.909c0.572-0.972,1.135-1.973,1.684-2.991c0.628,1.641,1.178,3.254,1.646,4.821 C57.438,51.212,55.727,51.574,53.953,51.876L53.953,51.876z M20.929,50.795c0.467-1.566,1.017-3.177,1.644-4.816 c0.548,1.017,1.111,2.017,1.682,2.988c0.569,0.968,1.166,1.94,1.785,2.908C24.267,51.572,22.557,51.211,20.929,50.795 L20.929,50.795z M24.474,71.003c-0.924,0-1.736-0.195-2.413-0.579c-1.19-0.676-2.051-1.977-2.557-3.869 c-0.831-2.845-0.737-6.592,0.218-10.933c3.176,0.814,6.592,1.428,10.175,1.826c2.075,2.766,4.246,5.313,6.468,7.588 C31.85,68.893,27.653,71.004,24.474,71.003L24.474,71.003L24.474,71.003z M50.098,57.45c3.584-0.399,7.001-1.012,10.178-1.826 c1.105,4.74,1.192,8.518,0.217,10.932c-0.505,1.889-1.364,3.188-2.552,3.861c-0.678,0.384-1.49,0.579-2.413,0.579v1l-0.001-1 c-3.18,0-7.377-2.11-11.891-5.961C45.856,62.762,48.025,60.216,50.098,57.45L50.098,57.45z M40,61.62 c-1.12-1.148-2.234-2.379-3.33-3.68C37.79,57.98,38.904,58,40,58c1.095,0,2.208-0.02,3.327-0.06 C42.232,59.241,41.119,60.472,40,61.62L40,61.62z"/>
    </symbol>

    <symbol id="redux-svg" viewBox="0 0 48 48">
        <path fill="#7e57c2"
              d="M23,4c-6.617,0-12,7.27-12,16.205c0,4.834,1.582,9.169,4.078,12.136C15.03,32.554,15,32.773,15,33	c0,1.657,1.343,3,3,3s3-1.343,3-3s-1.343-3-3-3c-0.315,0-0.612,0.062-0.897,0.152C15.206,27.731,14,24.175,14,20.205	C14,12.924,18.037,7,23,7c3.837,0,7.111,3.547,8.404,8.518c1.122,0.346,2.237,0.782,3.33,1.308C33.579,9.508,28.759,4,23,4z"/>
        <path fill="#7e57c2"
              d="M35.507,20.084c-3.947-2.392-8.374-3.442-12.182-2.959C22.775,16.444,21.943,16,21,16	c-1.657,0-3,1.343-3,3s1.343,3,3,3c1.272,0,2.353-0.795,2.789-1.912c3.118-0.379,6.812,0.531,10.163,2.563	c6.403,3.881,9.67,10.569,7.282,14.911c-0.827,1.504-2.286,2.572-4.218,3.09c-2.286,0.611-5.007,0.394-7.727-0.528	c-0.839,0.772-1.749,1.498-2.725,2.168c2.552,1.117,5.196,1.704,7.669,1.704c1.24,0,2.438-0.147,3.559-0.447	c2.741-0.733,4.841-2.304,6.071-4.542C47.016,33.276,43.267,24.787,35.507,20.084z"/>
        <path fill="#7e57c2"
              d="M35,28.992C35,27.34,33.657,26,32,26s-3,1.34-3,2.992c0,0.669,0.228,1.281,0.6,1.779	c-1.279,2.802-3.744,5.567-7.062,7.578c-3.865,2.344-8.185,3.202-11.555,2.302c-1.932-0.518-3.391-1.586-4.218-3.09	c-1.702-3.094-0.521-7.376,2.61-10.988c-0.323-1.144-0.562-2.34-0.706-3.575c-5.07,4.797-7.109,11.323-4.532,16.009	c1.23,2.238,3.33,3.809,6.071,4.542c1.121,0.3,2.318,0.447,3.559,0.447c3.346,0,7.007-1.068,10.326-3.08	c3.836-2.325,6.683-5.577,8.209-8.962C33.815,31.801,35,30.541,35,28.992z"/>
    </symbol>

    <symbol id="decoration-svg" viewBox="0 0 635 566">
        <path d="M475.651 395.145C626.54 338.18 539.334 222.899 476.87 172.379C288.931 54.6294 231.102 198.383 312.144 292.703C393.186 387.023 112.304 344.408 126.122 483.529C142.145 644.845 287.041 466.351 475.651 395.145Z"
              stroke="#23ACD8"/>
        <path opacity="0.95875"
              d="M469.957 390.924C623.421 337.919 541.665 220.44 481.604 168.325C299.291 45.7574 234.768 187.918 311.345 284.29C387.922 380.661 109.206 330.763 116.504 470.159C124.965 631.794 278.128 457.179 469.957 390.924Z"
              stroke="#23ACD8"/>
        <path opacity="0.9175"
              d="M464.465 386.557C620.316 337.578 544.109 218.042 486.525 164.397C310.061 37.1604 238.922 177.556 310.941 275.861C382.961 374.166 106.75 317.047 107.518 456.548C108.408 618.305 269.651 447.781 464.465 386.557Z"
              stroke="#23ACD8"/>
        <path opacity="0.87625"
              d="M459.181 382.05C617.23 337.155 546.665 215.71 491.627 160.599C321.227 28.8488 243.559 167.308 310.933 267.427C378.306 367.546 104.938 303.275 99.1743 442.711C92.4915 604.392 261.619 438.168 459.181 382.05Z"
              stroke="#23ACD8"/>
        <path opacity="0.835"
              d="M454.11 377.408C614.165 336.653 549.328 213.446 496.903 156.937C332.775 20.8327 248.673 157.187 311.318 258.998C373.964 360.808 103.771 289.465 91.4837 428.666C77.2362 590.074 254.043 428.352 454.11 377.408Z"
              stroke="#23ACD8"/>
        <path opacity="0.79375"
              d="M449.261 372.637C611.125 336.071 552.096 211.252 502.348 153.413C344.691 13.1221 254.257 147.205 312.099 250.584C369.94 353.962 103.251 275.632 84.4553 414.428C62.6606 575.368 246.93 418.344 449.261 372.637Z"
              stroke="#23ACD8"/>
        <path opacity="0.7525"
              d="M444.637 367.743C608.115 335.411 554.965 209.132 507.955 150.034C356.961 5.72613 260.305 137.374 313.272 242.195C366.239 347.016 103.379 261.794 78.0976 400.017C48.7822 560.292 240.29 408.158 444.637 367.743Z"
              stroke="#23ACD8"/>
        <path opacity="0.71125"
              d="M440.245 362.731C605.137 334.672 557.931 207.087 513.716 146.802C369.569 -1.34605 266.81 127.707 314.838 233.842C362.866 339.977 104.155 247.968 72.4184 385.449C35.6181 544.864 234.131 397.805 440.245 362.731Z"
              stroke="#23ACD8"/>
        <path opacity="0.67"
              d="M436.091 357.609C602.196 333.857 560.991 205.121 519.625 143.723C382.501 -8.08591 273.764 118.215 316.793 225.535C359.823 332.855 105.578 234.171 67.4247 370.742C23.1841 529.102 228.46 387.298 436.091 357.609Z"
              stroke="#23ACD8"/>
        <path opacity="0.62875"
              d="M432.179 352.381C599.295 332.965 564.141 203.236 525.675 140.799C395.741 -14.4852 281.157 108.91 319.137 217.284C357.117 325.658 107.646 220.419 63.1224 355.915C11.4957 513.027 223.285 376.65 432.179 352.381Z"
              stroke="#23ACD8"/>
        <path opacity="0.5875"
              d="M428.514 347.055C596.437 331.999 567.378 201.434 531.858 138.034C409.272 -20.536 288.982 99.8025 321.865 209.099C354.749 318.395 110.356 206.73 59.5169 340.984C0.566812 496.657 218.611 365.874 428.514 347.055Z"
              stroke="#23ACD8"/>
        <path opacity="0.54625"
              d="M425.102 341.636C593.627 330.959 570.697 199.718 538.167 135.432C423.079 -26.2312 297.228 90.9043 324.975 200.989C352.723 311.075 113.706 193.119 56.6133 325.969C-9.58838 480.013 214.445 354.983 425.102 341.636Z"
              stroke="#23ACD8"/>
        <path opacity="0.505"
              d="M421.944 336.132C590.866 329.846 574.094 198.088 544.593 132.995C437.144 -31.5636 305.886 82.2261 328.463 192.966C351.04 303.706 117.691 179.603 54.4136 310.887C-18.959 463.115 210.791 343.99 421.944 336.132Z"
              stroke="#23ACD8"/>
        <path opacity="0.46375"
              d="M419.045 330.549C588.159 328.662 577.565 196.548 551.129 130.727C451.448 -36.5269 314.944 73.7784 332.323 185.038C349.702 296.298 122.305 166.2 52.9206 295.757C-27.5335 445.984 207.653 332.909 419.045 330.549Z"
              stroke="#23ACD8"/>
        <path opacity="0.4225"
              d="M416.411 324.895C585.51 327.409 581.107 195.1 557.769 128.631C465.978 -41.115 324.393 65.5716 336.553 177.216C348.714 288.86 127.545 152.925 52.1381 280.598C-35.2994 428.64 205.037 321.752 416.411 324.895Z"
              stroke="#23ACD8"/>
        <path opacity="0.38125"
              d="M414.042 319.175C582.92 326.087 584.714 193.744 564.501 126.708C480.712 -45.3222 334.22 57.6156 341.146 169.508C348.072 281.401 133.402 139.794 52.0643 265.427C-42.2502 411.104 202.944 310.535 414.042 319.175Z"
              stroke="#23ACD8"/>
        <path opacity="0.34"
              d="M411.943 313.397C580.395 324.699 588.383 192.483 571.32 124.962C495.636 -49.1435 344.414 49.9201 346.098 161.925C347.782 273.93 139.872 126.823 52.7023 250.264C-48.3742 393.398 201.378 299.27 411.943 313.397Z"
              stroke="#23ACD8"/>
        <path opacity="0.29875"
              d="M410.116 307.568C577.936 323.245 592.108 191.318 578.217 123.395C510.729 -52.5742 354.961 42.4945 351.401 154.475C347.841 266.455 146.944 114.029 54.0489 235.126C-53.6664 375.543 200.34 287.971 410.116 307.568Z"
              stroke="#23ACD8"/>
        <path opacity="0.2575"
              d="M408.562 301.695C575.546 321.729 595.885 190.251 585.182 122.007C525.973 -55.6101 365.85 35.3478 357.05 147.167C348.25 258.987 154.61 101.427 56.1033 220.033C-58.1197 357.562 199.832 276.652 408.562 301.695Z"
              stroke="#23ACD8"/>
        <path opacity="0.21625"
              d="M407.283 295.785C573.228 320.152 599.71 189.283 592.208 120.802C541.349 -58.2476 377.066 28.4889 363.037 140.011C349.008 251.534 162.862 89.0312 58.8623 205.003C-61.7292 339.476 199.853 265.326 407.283 295.785Z"
              stroke="#23ACD8"/>
        <path opacity="0.175"
              d="M406.284 289.845C570.986 318.515 603.579 188.415 599.287 119.781C556.841 -60.4833 388.597 21.9259 369.356 133.015C350.115 244.105 171.69 76.8582 62.3247 190.053C-64.4884 321.307 200.406 254.008 406.284 289.845Z"
              stroke="#23ACD8"/>
        <path opacity="0.13375"
              d="M405.562 283.883C568.822 316.821 607.485 187.648 606.409 118.944C572.427 -62.3147 400.428 15.667 375.999 126.188C351.569 236.709 181.081 64.9222 66.484 175.203C-66.396 303.077 201.487 242.711 405.562 283.883Z"
              stroke="#23ACD8"/>
        <path opacity="0.0925"
              d="M405.12 277.906C566.739 315.071 611.425 186.983 613.565 118.293C588.09 -63.7393 412.545 9.71967 382.957 119.538C353.368 229.356 191.026 53.2379 71.3361 160.469C-67.4491 284.809 203.096 231.45 405.12 277.906Z"
              stroke="#23ACD8"/>
        <path opacity="0.05125"
              d="M404.958 271.921C564.739 313.268 615.393 186.421 620.748 117.829C603.81 -64.7557 424.933 4.09124 390.222 113.073C355.51 222.054 201.512 41.8194 76.8748 145.872C-67.6465 266.524 205.232 220.237 404.958 271.921Z"
              stroke="#23ACD8"/>
        <path opacity="0.01"
              d="M405.076 265.935C562.824 311.415 619.386 185.963 627.948 117.551C619.567 -65.3624 437.577 -1.21145 397.785 106.801C357.993 214.812 212.525 30.6807 83.0936 131.427C-66.9878 248.246 207.891 209.086 405.076 265.935Z"
              stroke="#23ACD8"/>
    </symbol>
</svg>








